<?xml version="1.0" encoding="utf-8"?>
<!-- Generator: Adobe Illustrator 24.0.1, SVG Export Plug-In . SVG Version: 6.00 Build 0)  -->
<svg version="1.1" id="Layer_1" xmlns="http://www.w3.org/2000/svg" xmlns:xlink="http://www.w3.org/1999/xlink" x="0px" y="0px"
	 viewBox="0 0 1287.11 355.56" style="enable-background:new 0 0 1287.11 355.56;" xml:space="preserve">
<style type="text/css">
	.st0{enable-background:new    ;}
	.st1{clip-path:url(#SVGID_2_);enable-background:new    ;}
	.st2{clip-path:url(#SVGID_6_);}
	.st3{fill:#113934;}
	.st4{fill:#105A4F;}
	.st5{fill:#BF954E;}
</style>
<g>
	<g>
		<path class="st4" d="M165.71,225.32c1.16-1.25,1.74-3.52,1.74-6.79v-41.38c0-1.09,0.5-1.64,1.51-1.64h13.89
			c1,0,1.51,0.55,1.51,1.64v45.77c0,7.11-1.36,12.33-4.08,15.67c-2.72,3.34-7.35,5-13.89,5H91.06c-6.34,0-10.87-1.68-13.59-5.05
			c-2.72-3.37-4.08-8.63-4.08-15.78v-35.27c0-1.09,0.5-1.64,1.51-1.64h13.89c1,0,1.51,0.55,1.51,1.64v31.01
			c0,3.28,0.58,5.55,1.74,6.81c1.16,1.26,2.99,1.89,5.51,1.89h62.5C162.66,227.2,164.55,226.57,165.71,225.32z M121.4,275.1
			c-1.01,0-1.51-0.55-1.51-1.66V259.2c0-1.11,0.5-1.66,1.51-1.66h14.49c1,0,1.51,0.55,1.51,1.66v14.24c0,1.1-0.5,1.66-1.51,1.66
			H121.4z"/>
		<path class="st4" d="M208.95,177.16c0-1.09,0.5-1.64,1.5-1.64h13.92c1,0,1.5,0.55,1.5,1.64v39.91c0,3.27,1.13,5.78,3.4,7.52
			c2.26,1.75,5.31,2.62,9.13,2.62h2.57c2.01,0,3.52,0.61,4.53,1.82c1,1.21,1.51,3.26,1.51,6.13c0,3.2-0.48,5.41-1.43,6.63
			c-0.96,1.22-2.49,1.82-4.6,1.82c-3.42,0-6.37-0.33-8.83-1c-2.47-0.66-4.55-2.15-6.27-4.47v3.12c0,5.91-0.45,11.09-1.35,15.53
			c-0.9,4.43-2.37,8.13-4.42,11.09c-2.04,2.96-4.77,5.17-8.16,6.65c-3.4,1.48-7.61,2.22-12.64,2.22h-5.59
			c-1.01,0-1.51-0.55-1.51-1.64v-13.13c0-1.09,0.5-1.64,1.51-1.64h3.32c2.92,0,5.18-0.55,6.79-1.64c1.61-1.09,2.79-2.71,3.55-4.84
			s1.21-4.7,1.36-7.71c0.15-3.01,0.23-6.48,0.23-10.42V177.16z"/>
		<path class="st4" d="M241.11,243.6c-2.01,0-3.4-0.55-4.15-1.66s-1.13-3.15-1.13-6.13c0-3.31,0.35-5.58,1.06-6.8
			c0.71-1.22,2.11-1.82,4.23-1.82h18.12c2.01,0,3.52,0.61,4.53,1.82c1,1.21,1.51,3.31,1.51,6.3c0,3.42-0.48,5.66-1.43,6.71
			c-0.96,1.05-2.49,1.57-4.6,1.57H241.11z"/>
		<path class="st4" d="M259.22,243.6c-2.01,0-3.4-0.55-4.15-1.66s-1.13-3.15-1.13-6.13c0-3.31,0.35-5.58,1.06-6.8
			c0.71-1.22,2.11-1.82,4.23-1.82h18.12c2.01,0,3.52,0.61,4.53,1.82c1,1.21,1.51,3.31,1.51,6.3c0,3.42-0.48,5.66-1.43,6.71
			c-0.96,1.05-2.49,1.57-4.6,1.57H259.22z"/>
		<path class="st4" d="M277.34,243.6c-2.01,0-3.4-0.55-4.15-1.66s-1.13-3.15-1.13-6.13c0-3.31,0.35-5.58,1.06-6.8
			c0.71-1.22,2.11-1.82,4.23-1.82h18.12c2.01,0,3.52,0.61,4.53,1.82c1,1.21,1.51,3.31,1.51,6.3c0,3.42-0.48,5.66-1.43,6.71
			c-0.96,1.05-2.49,1.57-4.6,1.57H277.34z"/>
		<path class="st4" d="M337.72,172.56c11.57,0,20.03,2.35,25.36,7.03c5.33,4.69,8,10.85,8,18.48c0,3.27-0.48,6.35-1.43,9.24
			c-0.96,2.89-2.19,5.56-3.7,8.02c-1.51,2.46-3.22,4.66-5.13,6.63c-1.91,1.96-3.77,3.6-5.58,4.9c0.8,0.22,1.68,0.33,2.64,0.33
			c0.96,0,1.99,0,3.09,0h18.87c2.31,0,3.87,0.66,4.68,1.99c0.8,1.33,1.21,3.54,1.21,6.63c0,3.09-0.48,5.17-1.43,6.21
			c-0.96,1.05-2.44,1.57-4.45,1.57h-22.49c-3.62,0-7.07-0.35-10.34-1.07c-3.27-0.71-6.37-2.05-9.28-4.02
			c-3.32,1.97-6.84,3.31-10.57,4.02c-3.72,0.71-7.04,1.07-9.96,1.07h-21.74c-1.91,0-3.37-0.55-4.38-1.66c-1-1.1-1.51-3.15-1.51-6.13
			c0-2.87,0.33-5.03,0.98-6.46c0.66-1.44,2.29-2.16,4.91-2.16h17.66c1.61,0,3.42-0.08,5.43-0.24c2.01-0.16,4.38-0.57,7.09-1.23
			c-0.81-3.6-1.89-6.71-3.25-9.32c-1.36-2.62-2.89-4.94-4.6-6.95c-1.71-2.02-3.55-3.82-5.51-5.4c-1.96-1.58-3.95-3.13-5.96-4.66
			c-1.11-0.87-1.74-1.66-1.89-2.37c-0.15-0.71-0.23-1.5-0.23-2.37v-10.31c0-1.2,0.96-2.51,2.87-3.92c1.91-1.42,4.43-2.7,7.55-3.85
			c3.12-1.14,6.69-2.1,10.72-2.86C329.37,172.95,333.49,172.56,337.72,172.56z M339.99,222.11c1.61-1.09,3.25-2.4,4.91-3.94
			c1.66-1.53,3.12-3.2,4.38-5c1.26-1.8,2.29-3.75,3.09-5.82c0.8-2.08,1.21-4.21,1.21-6.4c0-4.48-1.49-7.6-4.45-9.35
			c-2.97-1.75-6.77-2.63-11.4-2.63c-4.03,0-7.52,0.44-10.49,1.31c-2.97,0.88-5.01,1.64-6.11,2.3c4.63,3.17,8.58,7.3,11.85,12.39
			C336.23,210.05,338.57,215.77,339.99,222.11z"/>
		<path class="st4" d="M379.84,243.6c-2.01,0-3.4-0.55-4.15-1.66s-1.13-3.15-1.13-6.13c0-3.31,0.35-5.58,1.06-6.8
			c0.71-1.22,2.11-1.82,4.23-1.82h18.12c2.01,0,3.52,0.61,4.53,1.82c1,1.21,1.51,3.31,1.51,6.3c0,3.42-0.48,5.66-1.43,6.71
			c-0.96,1.05-2.49,1.57-4.6,1.57H379.84z"/>
		<path class="st4" d="M397.95,243.6c-2.01,0-3.52-0.52-4.53-1.57c-1-1.05-1.51-3.18-1.51-6.38c0-3.09,0.48-5.27,1.43-6.54
			c0.96-1.27,2.49-1.91,4.6-1.91h7.4c2.51,0,4.35-0.63,5.51-1.88c1.16-1.26,1.74-3.52,1.74-6.8v-84.84c0-1.09,0.5-1.64,1.5-1.64
			h13.92c1,0,1.5,0.55,1.5,1.64v89.25c0,7.11-1.35,12.33-4.04,15.67c-2.69,3.34-7.18,5-13.47,5H397.95z"/>
		<path class="st4" d="M466.18,241.96c0,1.09-0.5,1.64-1.5,1.64h-13.92c-1,0-1.5-0.55-1.5-1.64V133.68c0-1.09,0.5-1.64,1.5-1.64
			h13.92c1,0,1.5,0.55,1.5,1.64V241.96z"/>
		<path class="st4" d="M591.48,217.52c0,3.94,1.19,6.54,3.57,7.79c2.38,1.26,5.19,1.89,8.44,1.89c2.13,0,3.83-0.25,5.09-0.74
			s2.21-1.26,2.81-2.3c0.61-1.04,0.99-2.38,1.14-4.02c0.15-1.64,0.23-3.66,0.23-6.07v-24.12c0-1.09,0.5-1.64,1.5-1.64h13.92
			c1,0,1.5,0.55,1.5,1.64v27.4c0,1.97,0.35,3.61,1.06,4.92c0.71,1.31,1.62,2.33,2.74,3.04c1.12,0.71,2.43,1.21,3.95,1.48
			c1.52,0.27,3.14,0.41,4.87,0.41c2.13,0,3.78-0.24,4.94-0.74c1.17-0.49,2-1.28,2.51-2.37c0.51-1.09,0.81-2.48,0.91-4.17
			c0.1-1.69,0.15-3.73,0.15-6.13v-36.63c0-1.09,0.5-1.64,1.5-1.64h13.92c1,0,1.5,0.55,1.5,1.64v45.77c0,7.11-1.36,12.33-4.08,15.67
			c-2.72,3.34-7.24,5-13.58,5h-7.7c-3.52,0-6.51-0.75-8.98-2.24c-2.46-1.49-4.35-3.62-5.66-6.38c-1.41,3.2-3.45,5.44-6.12,6.71
			c-2.67,1.27-6.27,1.9-10.8,1.9h-6.65c-5.64,0-9.87-1.88-12.68-5.63v2.14c0,6.24-0.88,11.72-2.64,16.43
			c-1.76,4.71-4.27,8.62-7.53,11.75c-3.26,3.12-7.16,5.45-11.68,6.98c-4.52,1.53-9.54,2.3-15.07,2.3c-5.32,0-10.22-0.77-14.69-2.3
			c-4.47-1.53-8.36-3.86-11.68-6.97c-3.32-3.12-5.9-7.03-7.76-11.73c-1.86-4.7-2.79-10.23-2.79-16.57c0-5.91,0.85-11.81,2.57-17.72
			c1.71-5.91,3.82-10.99,6.34-15.26c0.5-0.98,1.26-1.09,2.26-0.33l12.23,5.25c0.5,0.22,0.78,0.52,0.83,0.9
			c0.05,0.38-0.03,0.79-0.23,1.23c-1.61,3.06-3.15,6.64-4.6,10.75c-1.46,4.1-2.19,8.61-2.19,13.54c0,4.27,0.63,7.85,1.89,10.75
			c1.26,2.9,2.87,5.22,4.83,6.97c1.96,1.75,4.15,2.98,6.57,3.69c2.42,0.71,4.78,1.07,7.1,1.07c5.74,0,10.39-1.68,13.96-5.03
			c3.57-3.36,5.36-8.77,5.36-16.24v-49.61c0-1.09,0.5-1.64,1.5-1.64h13.92c1,0,1.5,0.55,1.5,1.64V217.52z"/>
		<path class="st4" d="M703.94,241.96c0,1.09-0.5,1.64-1.5,1.64h-13.92c-1,0-1.5-0.55-1.5-1.64V133.68c0-1.09,0.5-1.64,1.5-1.64
			h13.92c1,0,1.5,0.55,1.5,1.64V241.96z"/>
		<path class="st4" d="M730.81,177.16c0-1.09,0.5-1.64,1.5-1.64h13.92c1,0,1.5,0.55,1.5,1.64v39.91c0,3.27,1.13,5.78,3.4,7.52
			c2.26,1.75,5.31,2.62,9.13,2.62h2.57c2.01,0,3.52,0.61,4.53,1.82c1,1.21,1.51,3.26,1.51,6.13c0,3.2-0.48,5.41-1.43,6.63
			c-0.96,1.22-2.49,1.82-4.6,1.82c-3.42,0-6.37-0.33-8.83-1c-2.47-0.66-4.55-2.15-6.27-4.47v3.12c0,5.91-0.45,11.09-1.35,15.53
			c-0.9,4.43-2.37,8.13-4.42,11.09c-2.04,2.96-4.77,5.17-8.16,6.65c-3.4,1.48-7.61,2.22-12.64,2.22h-5.59
			c-1.01,0-1.51-0.55-1.51-1.64v-13.13c0-1.09,0.5-1.64,1.51-1.64h3.32c2.92,0,5.18-0.55,6.79-1.64c1.61-1.09,2.79-2.71,3.55-4.84
			s1.21-4.7,1.36-7.71c0.15-3.01,0.23-6.48,0.23-10.42V177.16z"/>
		<path class="st4" d="M762.97,243.6c-2.01,0-3.4-0.55-4.15-1.66s-1.13-3.15-1.13-6.13c0-3.31,0.35-5.58,1.06-6.8
			c0.71-1.22,2.11-1.82,4.23-1.82h18.12c2.01,0,3.52,0.61,4.53,1.82c1,1.21,1.51,3.31,1.51,6.3c0,3.42-0.48,5.66-1.43,6.71
			c-0.96,1.05-2.49,1.57-4.6,1.57H762.97z"/>
		<path class="st4" d="M781.08,243.6c-2.01,0-3.4-0.55-4.15-1.66s-1.13-3.15-1.13-6.13c0-3.31,0.35-5.58,1.06-6.8
			c0.71-1.22,2.11-1.82,4.23-1.82h18.12c2.01,0,3.52,0.61,4.53,1.82c1,1.21,1.51,3.31,1.51,6.3c0,3.42-0.48,5.66-1.43,6.71
			c-0.96,1.05-2.49,1.57-4.6,1.57H781.08z"/>
		<path class="st4" d="M799.2,243.6c-2.01,0-3.4-0.55-4.15-1.66s-1.13-3.15-1.13-6.13c0-3.31,0.35-5.58,1.06-6.8
			c0.71-1.22,2.11-1.82,4.23-1.82h18.12c2.01,0,3.52,0.61,4.53,1.82c1,1.21,1.51,3.31,1.51,6.3c0,3.42-0.48,5.66-1.43,6.71
			c-0.96,1.05-2.49,1.57-4.6,1.57H799.2z"/>
		<path class="st4" d="M817.31,243.6c-2.01,0-3.4-0.55-4.15-1.66s-1.13-3.15-1.13-6.13c0-3.31,0.35-5.58,1.06-6.8
			c0.71-1.22,2.11-1.82,4.23-1.82h18.12c2.01,0,3.52,0.61,4.53,1.82c1,1.21,1.51,3.31,1.51,6.3c0,3.42-0.48,5.66-1.43,6.71
			c-0.96,1.05-2.49,1.57-4.6,1.57H817.31z"/>
		<path class="st4" d="M835.42,243.6c-2.01,0-3.4-0.55-4.15-1.66s-1.13-3.15-1.13-6.13c0-3.31,0.35-5.58,1.06-6.8
			c0.71-1.22,2.11-1.82,4.23-1.82h18.12c2.01,0,3.52,0.61,4.53,1.82c1,1.21,1.51,3.31,1.51,6.3c0,3.42-0.48,5.66-1.43,6.71
			c-0.96,1.05-2.49,1.57-4.6,1.57H835.42z"/>
		<path class="st4" d="M853.54,243.6c-2.01,0-3.4-0.55-4.15-1.66s-1.13-3.15-1.13-6.13c0-3.31,0.35-5.58,1.06-6.8
			c0.71-1.22,2.11-1.82,4.23-1.82h18.12c2.01,0,3.52,0.61,4.53,1.82c1,1.21,1.51,3.31,1.51,6.3c0,3.42-0.48,5.66-1.43,6.71
			c-0.96,1.05-2.49,1.57-4.6,1.57H853.54z"/>
		<path class="st4" d="M871.65,243.6c-2.01,0-3.4-0.55-4.15-1.66s-1.13-3.15-1.13-6.13c0-3.31,0.35-5.58,1.06-6.8
			c0.71-1.22,2.11-1.82,4.23-1.82h18.12c2.01,0,3.52,0.61,4.53,1.82c1,1.21,1.51,3.31,1.51,6.3c0,3.42-0.48,5.66-1.43,6.71
			c-0.96,1.05-2.49,1.57-4.6,1.57H871.65z"/>
		<path class="st4" d="M889.77,243.6c-2.01,0-3.4-0.55-4.15-1.66s-1.13-3.15-1.13-6.13c0-3.31,0.35-5.58,1.06-6.8
			c0.71-1.22,2.11-1.82,4.23-1.82h18.12c2.01,0,3.52,0.61,4.53,1.82c1,1.21,1.51,3.31,1.51,6.3c0,3.42-0.48,5.66-1.43,6.71
			c-0.96,1.05-2.49,1.57-4.6,1.57H889.77z"/>
		<path class="st4" d="M907.88,243.6c-2.01,0-3.4-0.55-4.15-1.66s-1.13-3.15-1.13-6.13c0-3.31,0.35-5.58,1.06-6.8
			c0.71-1.22,2.11-1.82,4.23-1.82H926c2.01,0,3.52,0.61,4.53,1.82c1,1.21,1.51,3.31,1.51,6.3c0,3.42-0.48,5.66-1.43,6.71
			c-0.96,1.05-2.49,1.57-4.6,1.57H907.88z"/>
		<path class="st4" d="M926,243.6c-2.01,0-3.4-0.55-4.15-1.66s-1.13-3.15-1.13-6.13c0-3.31,0.35-5.58,1.06-6.8
			c0.71-1.22,2.11-1.82,4.23-1.82h18.12c2.01,0,3.52,0.61,4.53,1.82c1,1.21,1.51,3.31,1.51,6.3c0,3.42-0.48,5.66-1.43,6.71
			c-0.96,1.05-2.49,1.57-4.6,1.57H926z"/>
		<path class="st4" d="M944.11,243.6c-2.01,0-3.4-0.55-4.15-1.66s-1.13-3.15-1.13-6.13c0-3.31,0.35-5.58,1.06-6.8
			c0.71-1.22,2.11-1.82,4.23-1.82h18.12c2.01,0,3.52,0.61,4.53,1.82c1,1.21,1.51,3.31,1.51,6.3c0,3.42-0.48,5.66-1.43,6.71
			c-0.96,1.05-2.49,1.57-4.6,1.57H944.11z"/>
		<path class="st4" d="M962.22,243.6c-2.01,0-3.4-0.55-4.15-1.66s-1.13-3.15-1.13-6.13c0-3.31,0.35-5.58,1.06-6.8
			c0.71-1.22,2.11-1.82,4.23-1.82h18.12c2.01,0,3.52,0.61,4.53,1.82c1,1.21,1.51,3.31,1.51,6.3c0,3.42-0.48,5.66-1.43,6.71
			c-0.96,1.05-2.49,1.57-4.6,1.57H962.22z"/>
		<path class="st4" d="M980.34,243.6c-2.01,0-3.4-0.55-4.15-1.66s-1.13-3.15-1.13-6.13c0-3.31,0.35-5.58,1.06-6.8
			c0.71-1.22,2.11-1.82,4.23-1.82h18.12c2.01,0,3.52,0.61,4.53,1.82c1,1.21,1.51,3.31,1.51,6.3c0,3.42-0.48,5.66-1.43,6.71
			c-0.96,1.05-2.49,1.57-4.6,1.57H980.34z"/>
		<path class="st4" d="M998.45,243.6c-2.01,0-3.4-0.55-4.15-1.66s-1.13-3.15-1.13-6.13c0-3.31,0.35-5.58,1.06-6.8
			c0.71-1.22,2.11-1.82,4.23-1.82h18.12c2.01,0,3.52,0.61,4.53,1.82c1,1.21,1.51,3.31,1.51,6.3c0,3.42-0.48,5.66-1.43,6.71
			c-0.96,1.05-2.49,1.57-4.6,1.57H998.45z"/>
		<path class="st4" d="M1016.57,243.6c-2.01,0-3.4-0.55-4.15-1.66s-1.13-3.15-1.13-6.13c0-3.31,0.35-5.58,1.06-6.8
			c0.71-1.22,2.11-1.82,4.23-1.82h18.12c2.01,0,3.52,0.61,4.53,1.82c1,1.21,1.51,3.31,1.51,6.3c0,3.42-0.48,5.66-1.43,6.71
			c-0.96,1.05-2.49,1.57-4.6,1.57H1016.57z"/>
		<path class="st4" d="M1034.68,243.6c-2.01,0-3.4-0.55-4.15-1.66s-1.13-3.15-1.13-6.13c0-3.31,0.35-5.58,1.06-6.8
			c0.71-1.22,2.11-1.82,4.23-1.82h18.12c2.01,0,3.52,0.61,4.53,1.82c1,1.21,1.51,3.31,1.51,6.3c0,3.42-0.48,5.66-1.43,6.71
			c-0.96,1.05-2.49,1.57-4.6,1.57H1034.68z"/>
		<path class="st4" d="M1052.8,243.6c-2.01,0-3.4-0.55-4.15-1.66s-1.13-3.15-1.13-6.13c0-3.31,0.35-5.58,1.06-6.8
			c0.71-1.22,2.11-1.82,4.23-1.82h18.12c2.01,0,3.52,0.61,4.53,1.82c1,1.21,1.51,3.31,1.51,6.3c0,3.42-0.48,5.66-1.43,6.71
			c-0.96,1.05-2.49,1.57-4.6,1.57H1052.8z"/>
		<path class="st4" d="M1070.91,243.6c-2.01,0-3.4-0.55-4.15-1.66s-1.13-3.15-1.13-6.13c0-3.31,0.35-5.58,1.06-6.8
			c0.71-1.22,2.11-1.82,4.23-1.82h18.12c2.01,0,3.52,0.61,4.53,1.82c1,1.21,1.51,3.31,1.51,6.3c0,3.42-0.48,5.66-1.43,6.71
			c-0.96,1.05-2.49,1.57-4.6,1.57H1070.91z"/>
		<path class="st4" d="M1089.03,243.6c-2.01,0-3.4-0.55-4.15-1.66s-1.13-3.15-1.13-6.13c0-3.31,0.35-5.58,1.06-6.8
			c0.71-1.22,2.11-1.82,4.23-1.82h18.12c2.01,0,3.52,0.61,4.53,1.82c1,1.21,1.51,3.31,1.51,6.3c0,3.42-0.48,5.66-1.43,6.71
			c-0.96,1.05-2.49,1.57-4.6,1.57H1089.03z"/>
		<path class="st4" d="M1107.14,243.6c-2.01,0-3.4-0.55-4.15-1.66s-1.13-3.15-1.13-6.13c0-3.31,0.35-5.58,1.06-6.8
			c0.71-1.22,2.11-1.82,4.23-1.82h18.12c2.01,0,3.52,0.61,4.53,1.82c1,1.21,1.51,3.31,1.51,6.3c0,3.42-0.48,5.66-1.43,6.71
			c-0.96,1.05-2.49,1.57-4.6,1.57H1107.14z"/>
		<path class="st4" d="M1157.56,217.06c0,3.27,1.13,5.78,3.4,7.52c2.26,1.75,5.31,2.62,9.13,2.62h2.57c2.01,0,3.52,0.61,4.53,1.82
			c1,1.21,1.51,3.26,1.51,6.13c0,3.2-0.48,5.41-1.43,6.63c-0.96,1.22-2.49,1.82-4.6,1.82c-3.92,0-7.35-0.52-10.27-1.57
			c-2.92-1.05-5.23-3.34-6.92-6.88c-1.4,3.2-3.47,5.41-6.21,6.63c-2.74,1.22-6.52,1.82-11.32,1.82h-11.93
			c-2.01,0-3.52-0.36-4.53-1.08c-1-0.72-1.51-2.29-1.51-4.72c0-2.76,0.48-5.22,1.43-7.37c0.96-2.15,2.54-3.23,4.75-3.23h7.25
			c1.71,0,3.07-0.27,4.08-0.82c1-0.54,1.74-1.42,2.19-2.62c0.45-1.2,0.73-2.78,0.83-4.74c0.1-1.96,0.15-4.36,0.15-7.2v-34.67
			c0-1.09,0.5-1.64,1.5-1.64h13.92c1,0,1.5,0.55,1.5,1.64V217.06z M1142.01,274.77c-1.01,0-1.51-0.55-1.51-1.66v-14.24
			c0-1.11,0.5-1.66,1.51-1.66h14.49c1,0,1.51,0.55,1.51,1.66v14.24c0,1.1-0.5,1.66-1.51,1.66H1142.01z"/>
		<path class="st4" d="M1172.81,243.6c-2.01,0-3.52-0.38-4.53-1.16c-1-0.77-1.51-2.32-1.51-4.64c0-2.76,0.48-5.22,1.43-7.37
			c0.96-2.15,2.49-3.23,4.6-3.23h7.4c2.51,0,4.35-0.63,5.51-1.88c1.16-1.25,1.74-3.52,1.74-6.79v-41.38c0-1.09,0.5-1.64,1.5-1.64
			h13.92c1,0,1.5,0.55,1.5,1.64v45.77c0,7.11-1.35,12.33-4.04,15.67c-2.69,3.34-7.18,5-13.47,5H1172.81z M1188.81,159.11
			c-1.01,0-1.51-0.55-1.51-1.66v-14.24c0-1.1,0.5-1.66,1.51-1.66h14.49c1,0,1.51,0.55,1.51,1.66v14.24c0,1.1-0.5,1.66-1.51,1.66
			H1188.81z"/>
	</g>
</g>
<g>
	<path class="st5" d="M821.68,132.07c7.87,0,13.68,1.68,17.44,5.04c3.75,3.36,5.63,7.92,5.63,13.67c0,2.56-0.37,4.96-1.1,7.2
		c-0.74,2.24-1.67,4.32-2.81,6.24c-1.14,1.92-2.45,3.66-3.92,5.22c-1.47,1.56-2.91,2.86-4.3,3.9c0.81,0.16,1.62,0.3,2.43,0.42
		c0.81,0.12,1.58,0.18,2.32,0.18h16.11c1.47,0,2.58,0.28,3.31,0.84c0.73,0.56,1.1,1.68,1.1,3.36c0,2-0.35,3.36-1.05,4.08
		c-0.7,0.72-1.82,1.08-3.37,1.08h-16.44c-2.13,0-4.42-0.28-6.84-0.84c-2.43-0.56-4.6-1.52-6.51-2.88c-2.13,0.88-4.38,1.66-6.73,2.34
		c-2.36,0.68-4.49,1.42-6.4,2.22c-1.91,0.8-3.5,1.8-4.75,3c-1.25,1.2-1.88,2.8-1.88,4.8c0,1.92,0.68,3.38,2.04,4.38
		c1.36,1,3.84,1.5,7.45,1.5h10.59c0.74,0,1.1,0.4,1.1,1.2v6.96c0,0.8-0.37,1.2-1.1,1.2h-11.37c-5.96,0-10.48-1.16-13.57-3.48
		c-3.09-2.32-4.64-6.24-4.64-11.75c0-3.44,0.68-6.28,2.04-8.52c1.36-2.24,3.07-4.04,5.13-5.4c2.06-1.36,4.3-2.42,6.73-3.18
		c2.43-0.76,4.75-1.38,6.95-1.86c-0.51-3.2-1.29-5.96-2.32-8.28c-1.03-2.32-2.21-4.34-3.53-6.06c-1.32-1.72-2.78-3.24-4.36-4.56
		c-1.58-1.32-3.18-2.62-4.8-3.9c-0.66-0.48-1.09-0.9-1.27-1.26c-0.18-0.36-0.28-0.74-0.28-1.14v-7.2c0-1.12,0.37-1.92,1.1-2.4
		c0.88-0.56,2.04-1.2,3.48-1.92c1.43-0.72,3.09-1.4,4.97-2.04c1.88-0.64,3.95-1.16,6.24-1.56
		C816.78,132.27,819.17,132.07,821.68,132.07z M821.68,141.43c-3.31,0-6.22,0.38-8.72,1.14c-2.5,0.76-4.16,1.42-4.97,1.98
		c3.75,2.32,7.04,5.56,9.88,9.71c2.83,4.16,4.87,9.12,6.13,14.87c1.18-0.8,2.43-1.82,3.75-3.06c1.32-1.24,2.52-2.6,3.59-4.08
		c1.07-1.48,1.95-3.12,2.65-4.92c0.7-1.8,1.05-3.66,1.05-5.58c0-2-0.35-3.64-1.05-4.92c-0.7-1.28-1.64-2.3-2.81-3.06
		c-1.18-0.76-2.59-1.3-4.25-1.62C825.26,141.59,823.51,141.43,821.68,141.43z"/>
	<path class="st5" d="M853.68,183.29c-1.47,0-2.46-0.34-2.98-1.02c-0.51-0.68-0.77-1.86-0.77-3.54c0-2,0.24-3.3,0.72-3.9
		c0.48-0.6,1.49-0.9,3.04-0.9h12.14c1.47,0,2.58,0.32,3.31,0.96c0.73,0.64,1.1,1.8,1.1,3.48c0,2-0.35,3.32-1.05,3.96
		c-0.7,0.64-1.82,0.96-3.37,0.96H853.68z"/>
	<path class="st5" d="M865.93,183.29c-1.47,0-2.46-0.34-2.98-1.02c-0.51-0.68-0.77-1.86-0.77-3.54c0-2,0.24-3.3,0.72-3.9
		c0.48-0.6,1.49-0.9,3.04-0.9h12.14c1.47,0,2.58,0.32,3.31,0.96c0.73,0.64,1.1,1.8,1.1,3.48c0,2-0.35,3.32-1.05,3.96
		c-0.7,0.64-1.82,0.96-3.37,0.96H865.93z"/>
	<path class="st5" d="M878.18,183.29c-1.47,0-2.46-0.34-2.98-1.02c-0.51-0.68-0.77-1.86-0.77-3.54c0-2,0.24-3.3,0.72-3.9
		c0.48-0.6,1.49-0.9,3.04-0.9h12.14c1.47,0,2.58,0.32,3.31,0.96c0.73,0.64,1.1,1.8,1.1,3.48c0,2-0.35,3.32-1.05,3.96
		c-0.7,0.64-1.82,0.96-3.37,0.96H878.18z"/>
	<path class="st5" d="M890.32,183.29c-1.47,0-2.57-0.28-3.31-0.84c-0.74-0.56-1.1-1.68-1.1-3.36c0-2,0.35-3.36,1.05-4.08
		c0.7-0.72,1.82-1.08,3.37-1.08h6.95c1.84,0,3.18-0.46,4.03-1.38c0.84-0.92,1.27-2.58,1.27-4.98v-32.14c0-0.8,0.37-1.2,1.1-1.2h7.06
		c0.73,0,1.1,0.4,1.1,1.2v32.74c0,5.2-0.99,9.02-2.98,11.45c-1.99,2.44-5.3,3.66-9.93,3.66H890.32z M900.91,205.24
		c-0.74,0-1.1-0.4-1.1-1.2v-8.76c0-0.8,0.37-1.2,1.1-1.2h7.5c0.73,0,1.1,0.4,1.1,1.2v8.76c0,0.8-0.37,1.2-1.1,1.2H900.91z"/>
	<path class="st5" d="M927.29,102.93c0-0.8,0.37-1.2,1.1-1.2h7.06c0.73,0,1.1,0.4,1.1,1.2v64.65c0,2.4,0.42,4.06,1.27,4.98
		c0.85,0.92,2.19,1.38,4.03,1.38h4.86c2.94,0,4.41,1.6,4.41,4.8c0,2-0.35,3.26-1.05,3.78c-0.7,0.52-1.82,0.78-3.37,0.78h-6.51
		c-4.63,0-7.95-1.22-9.93-3.66c-1.99-2.44-2.98-6.26-2.98-11.45V102.93z"/>
	<path class="st5" d="M946.82,183.29c-1.47,0-2.46-0.34-2.98-1.02c-0.51-0.68-0.77-1.86-0.77-3.54c0-2,0.24-3.3,0.72-3.9
		c0.48-0.6,1.49-0.9,3.04-0.9h12.14c1.47,0,2.58,0.32,3.31,0.96c0.73,0.64,1.1,1.8,1.1,3.48c0,2-0.35,3.32-1.05,3.96
		c-0.7,0.64-1.82,0.96-3.37,0.96H946.82z"/>
	<path class="st5" d="M958.96,183.29c-1.47,0-2.57-0.28-3.31-0.84c-0.74-0.56-1.1-1.68-1.1-3.36c0-2,0.35-3.36,1.05-4.08
		c0.7-0.72,1.82-1.08,3.37-1.08h6.95c1.84,0,3.18-0.46,4.03-1.38c0.84-0.92,1.27-2.58,1.27-4.98v-64.65c0-0.8,0.37-1.2,1.1-1.2h7.06
		c0.73,0,1.1,0.4,1.1,1.2l0.02,36.58c3.61-2.08,7.63-3.84,12.05-5.28c4.42-1.44,8.96-2.16,13.6-2.16c5.16,0,9.43,0.76,12.82,2.28
		c3.39,1.52,6.1,3.58,8.13,6.18c2.03,2.6,3.45,5.62,4.26,9.06c0.81,3.44,1.22,7.08,1.22,10.91c0,1.04-0.02,2.02-0.05,2.94
		c-0.04,0.92-0.06,1.7-0.06,2.34c0,2.72,0.9,4.76,2.7,6.12c1.8,1.36,4.21,2.04,7.23,2.04h1.21c1.47,0,2.58,0.34,3.31,1.02
		c0.73,0.68,1.1,1.82,1.1,3.42c0,2.08-0.35,3.42-1.05,4.02c-0.7,0.6-1.82,0.9-3.37,0.9h-2.32c-2.58,0-4.88-0.64-6.9-1.92
		c-2.03-1.28-3.45-3.12-4.27-5.52c-1.25,2.72-3.04,4.64-5.36,5.76c-2.32,1.12-5.29,1.68-8.9,1.68h-37.13
		c-1.77,0-3.02-0.52-3.76-1.56c-1.84,1.04-4.31,1.56-7.4,1.56H958.96z M1005.42,141.43c-2.21,0-4.45,0.22-6.73,0.66
		c-2.28,0.44-4.51,1.02-6.68,1.74c-2.17,0.72-4.23,1.52-6.18,2.4c-1.95,0.88-3.74,1.76-5.35,2.64v19.31c0,2-0.18,3.92-0.55,5.76
		h32.67c2.06,0,3.75-0.2,5.08-0.6c1.32-0.4,2.35-1.1,3.09-2.1c0.73-1,1.23-2.4,1.49-4.2c0.26-1.8,0.39-4.1,0.39-6.9
		c0-2.96-0.28-5.6-0.83-7.92c-0.55-2.32-1.49-4.28-2.81-5.88c-1.32-1.6-3.09-2.82-5.3-3.66
		C1011.49,141.85,1008.74,141.43,1005.42,141.43z"/>
	<path class="st5" d="M1076.83,184.13c-3.46,0-6.51-0.54-9.16-1.62c-2.65-1.08-4.89-2.78-6.73-5.1c-1.54,2.56-3.53,4.18-5.96,4.86
		c-2.43,0.68-4.67,1.02-6.73,1.02h-4.75c-2.94,0-4.41-1.6-4.41-4.8c0-2,0.35-3.26,1.05-3.78c0.7-0.52,1.82-0.78,3.37-0.78h5.52
		c0.81,0,1.62-0.18,2.43-0.54c0.81-0.36,1.54-0.96,2.21-1.8c0.66-0.84,1.2-1.96,1.6-3.36c0.4-1.4,0.61-3.14,0.61-5.22
		c-0.07-0.8-0.11-1.58-0.11-2.34c0-0.76,0-1.58,0-2.46c0-9.19,1.88-15.85,5.63-19.97c3.75-4.12,8.9-6.18,15.45-6.18
		c6.55,0,11.7,2.06,15.45,6.18c3.75,4.12,5.63,10.78,5.63,19.97c0,4.56-0.5,8.48-1.49,11.75c-0.99,3.28-2.39,5.96-4.19,8.04
		c-1.8,2.08-4.01,3.62-6.62,4.62C1082.99,183.63,1080.07,184.13,1076.83,184.13z M1076.83,141.43c-4.12,0-7.12,1.48-8.99,4.44
		c-1.88,2.96-2.81,7.08-2.81,12.35c0,5.76,0.94,9.96,2.81,12.59s4.87,3.96,8.99,3.96c4.12,0,7.12-1.32,9-3.96s2.81-6.84,2.81-12.59
		c0-5.28-0.94-9.4-2.81-12.35C1083.95,142.91,1080.95,141.43,1076.83,141.43z"/>
</g>
</svg>
